<svg version="1" xmlns="http://www.w3.org/2000/svg" width="2056" height="2056" viewBox="0 0 1542.000000 1542.000000"><path d="M0 51c0 .6 9.8 1 27.5 1H55v597c0 328.3.3 597 .8 597.1 2.3.3 116.9.4 117.9.1 1-.3 1.3-120.7 1.3-597.3V52h120v596.9c0 476.6.3 597 1.3 597.3 1 .3 115.6.2 118-.1.4-.1.7-268.8.7-597.1V52h240v596.9c0 476.6.3 597 1.3 597.3.6.2 54.5.3 119.7.3h118.5l.3-597.3L895 52h120v597c0 328.3.3 597 .8 597.1 2.3.3 116.9.4 118 .1.9-.3 1.2-120.7 1.2-597.3V52h120l.2 597.2.3 597.2h239l.3-597.2.2-597.2h23.5c15 0 23.5-.4 23.5-1 0-.7-257.7-1-771-1S0 50.3 0 51zM175 1426.1v59.9h360v-119.8H175v59.9zM655 1431.1v54.9h120V1376.3H655v54.8zM895 1431.1v54.9h120V1376.3H895v54.8zM1135 1431.1v54.9h240V1376.3h-240v54.8z"/></svg>